<svg width="115" height="27" viewBox="0 0 115 27" fill="none" xmlns="http://www.w3.org/2000/svg">
<path d="M2.6941 2.76227V12.1583H12.2341V14.2463H2.6941V23.7863H13.3141V25.8743H0.174098V0.674266H13.3141V2.76227H2.6941ZM78.4547 25.8743H75.9347L62.0027 4.70627V25.8743H59.4827V0.710265H62.0027L75.9347 21.8423V0.710265H78.4547V25.8743ZM98.8864 0.710265V2.79827H91.9024V25.8743H89.3824V2.79827H82.3624V0.710265H98.8864ZM105.386 23.8223H114.422V25.8743H102.866V0.710265H105.386V23.8223Z" fill="#2A3642"/>
<path d="M25.9116 26.1263C24.2556 26.1263 22.7916 25.8383 21.5196 25.2623C20.2716 24.6863 19.2876 23.8823 18.5676 22.8503C17.8476 21.8183 17.4636 20.6663 17.4156 19.3943H20.0796C20.1996 20.6183 20.7396 21.6983 21.6996 22.6343C22.6596 23.5463 24.0636 24.0023 25.9116 24.0023C27.6156 24.0023 28.9596 23.5703 29.9436 22.7063C30.9516 21.8183 31.4556 20.7023 31.4556 19.3583C31.4556 18.2783 31.1796 17.4143 30.6276 16.7663C30.0756 16.0943 29.3916 15.6023 28.5756 15.2903C27.7596 14.9543 26.6316 14.5943 25.1916 14.2103C23.5116 13.7543 22.1796 13.3103 21.1956 12.8783C20.2116 12.4463 19.3716 11.7743 18.6756 10.8623C17.9796 9.95027 17.6316 8.71427 17.6316 7.15427C17.6316 5.85827 17.9676 4.70627 18.6396 3.69827C19.3116 2.66627 20.2596 1.86227 21.4836 1.28627C22.7076 0.710267 24.1116 0.422267 25.6956 0.422267C28.0236 0.422267 29.8956 0.998267 31.3116 2.15027C32.7516 3.27827 33.5796 4.74227 33.7956 6.54227H31.0596C30.8916 5.51027 30.3276 4.59827 29.3676 3.80627C28.4076 2.99027 27.1116 2.58227 25.4796 2.58227C23.9676 2.58227 22.7076 2.99027 21.6996 3.80627C20.6916 4.59827 20.1876 5.69027 20.1876 7.08227C20.1876 8.13827 20.4636 8.99027 21.0156 9.63827C21.5676 10.2863 22.2516 10.7783 23.0676 11.1143C23.9076 11.4503 25.0356 11.8103 26.4516 12.1943C28.0836 12.6503 29.4036 13.1063 30.4116 13.5623C31.4196 13.9943 32.2716 14.6663 32.9676 15.5783C33.6636 16.4903 34.0116 17.7143 34.0116 19.2503C34.0116 20.4263 33.6996 21.5423 33.0756 22.5983C32.4516 23.6543 31.5276 24.5063 30.3036 25.1543C29.0796 25.8023 27.6156 26.1263 25.9116 26.1263ZM46.5131 26.1263C44.8571 26.1263 43.3931 25.8383 42.1211 25.2623C40.8731 24.6863 39.8891 23.8823 39.1691 22.8503C38.4491 21.8183 38.0651 20.6663 38.0171 19.3943H40.6811C40.8011 20.6183 41.3411 21.6983 42.3011 22.6343C43.2611 23.5463 44.6651 24.0023 46.5131 24.0023C48.2171 24.0023 49.5611 23.5703 50.5451 22.7063C51.5531 21.8183 52.0571 20.7023 52.0571 19.3583C52.0571 18.2783 51.7811 17.4143 51.2291 16.7663C50.6771 16.0943 49.9931 15.6023 49.1771 15.2903C48.3611 14.9543 47.2331 14.5943 45.7931 14.2103C44.1131 13.7543 42.7811 13.3103 41.7971 12.8783C40.8131 12.4463 39.9731 11.7743 39.2771 10.8623C38.5811 9.95027 38.2331 8.71427 38.2331 7.15427C38.2331 5.85827 38.5691 4.70627 39.2411 3.69827C39.9131 2.66627 40.8611 1.86227 42.0851 1.28627C43.3091 0.710267 44.7131 0.422267 46.2971 0.422267C48.6251 0.422267 50.4971 0.998267 51.9131 2.15027C53.3531 3.27827 54.1811 4.74227 54.3971 6.54227H51.6611C51.4931 5.51027 50.9291 4.59827 49.9691 3.80627C49.0091 2.99027 47.7131 2.58227 46.0811 2.58227C44.5691 2.58227 43.3091 2.99027 42.3011 3.80627C41.2931 4.59827 40.7891 5.69027 40.7891 7.08227C40.7891 8.13827 41.0651 8.99027 41.6171 9.63827C42.1691 10.2863 42.8531 10.7783 43.6691 11.1143C44.5091 11.4503 45.6371 11.8103 47.0531 12.1943C48.6851 12.6503 50.0051 13.1063 51.0131 13.5623C52.0211 13.9943 52.8731 14.6663 53.5691 15.5783C54.2651 16.4903 54.6131 17.7143 54.6131 19.2503C54.6131 20.4263 54.3011 21.5423 53.6771 22.5983C53.0531 23.6543 52.1291 24.5063 50.9051 25.1543C49.6811 25.8023 48.2171 26.1263 46.5131 26.1263Z" fill="#46BEA5"/>
</svg>
