<svg width="20" height="21" viewBox="0 0 20 21" fill="none" xmlns="http://www.w3.org/2000/svg">
<path fill-rule="evenodd" clip-rule="evenodd" d="M20 10.5C20 16.0228 15.5228 20.5 10 20.5C4.47715 20.5 0 16.0228 0 10.5C0 4.97715 4.47715 0.5 10 0.5C15.5228 0.5 20 4.97715 20 10.5ZM18 10.5C18 14.9183 14.4183 18.5 10 18.5C8.1513 18.5 6.44905 17.8729 5.09437 16.8199L16.3199 5.59438C17.3729 6.94906 18 8.6513 18 10.5ZM3.68016 15.4057L14.9057 4.18016C13.551 3.12709 11.8487 2.5 10 2.5C5.58172 2.5 2 6.08172 2 10.5C2 12.3487 2.62709 14.051 3.68016 15.4057Z" fill="#269E97"/>
</svg>
