<svg width="20" height="19" viewBox="0 0 20 19" fill="none" xmlns="http://www.w3.org/2000/svg">
<path fill-rule="evenodd" clip-rule="evenodd" d="M0 1.07362L1.87959 0.390137L2.73113 2.73188H19.2206L16.9099 11.9744C16.7986 12.4196 16.3987 12.7319 15.9398 12.7319H4.93979C4.51929 12.7319 4.1437 12.4688 4 12.0736L0 1.07362Z" fill="#269E97"/>
<path d="M6.43982 14.7319C5.37343 14.7319 4.50093 15.6044 4.50093 16.6708C4.50093 17.7371 5.37343 18.6096 6.43982 18.6096C7.50621 18.6096 8.37871 17.7371 8.37871 16.6708C8.37871 15.6044 7.50621 14.7319 6.43982 14.7319Z" fill="#269E97"/>
<path d="M14.1649 14.732C13.0985 14.732 12.226 15.6045 12.226 16.6709C12.226 17.7373 13.0985 18.6098 14.1649 18.6098C15.2313 18.6098 16.1038 17.7373 16.1038 16.6709C16.1038 15.6045 15.2313 14.732 14.1649 14.732Z" fill="#269E97"/>
</svg>
