<svg width="4" height="16" viewBox="0 0 4 16" fill="none" xmlns="http://www.w3.org/2000/svg">
<path fill-rule="evenodd" clip-rule="evenodd" d="M3.59997 14.4C3.59997 13.52 2.87997 12.8 1.99998 12.8C1.11997 12.8 0.399975 13.52 0.399975 14.4C0.399975 15.28 1.11997 16 1.99997 16C2.87997 16 3.59997 15.28 3.59997 14.4ZM3.59998 8C3.59998 7.12 2.87998 6.4 1.99998 6.4C1.11998 6.4 0.399975 7.12 0.399975 8C0.399975 8.88 1.11997 9.6 1.99998 9.6C2.87998 9.6 3.59998 8.88 3.59998 8ZM3.59998 1.6C3.59998 0.72 2.87998 -3.14722e-08 1.99998 -6.99382e-08C1.11998 -1.08404e-07 0.399976 0.72 0.399975 1.6C0.399975 2.48 1.11998 3.2 1.99998 3.2C2.87998 3.2 3.59998 2.48 3.59998 1.6Z" fill="#269E97"/>
</svg>
