<svg width="22" height="23" viewBox="0 0 22 23" fill="none" xmlns="http://www.w3.org/2000/svg">
<path d="M5 8.5V1.5H17V8.5" fill="white"/>
<path d="M5 8.5V1.5H17V8.5" stroke="#269E97" stroke-width="2" stroke-linecap="round" stroke-linejoin="round"/>
<path d="M5 17.5H3C2.46957 17.5 1.96086 17.2893 1.58579 16.9142C1.21071 16.5391 1 16.0304 1 15.5V10.5C1 9.96957 1.21071 9.46086 1.58579 9.08579C1.96086 8.71071 2.46957 8.5 3 8.5H19C19.5304 8.5 20.0391 8.71071 20.4142 9.08579C20.7893 9.46086 21 9.96957 21 10.5V15.5C21 16.0304 20.7893 16.5391 20.4142 16.9142C20.0391 17.2893 19.5304 17.5 19 17.5H17" fill="white"/>
<path d="M5 17.5H3C2.46957 17.5 1.96086 17.2893 1.58579 16.9142C1.21071 16.5391 1 16.0304 1 15.5V10.5C1 9.96957 1.21071 9.46086 1.58579 9.08579C1.96086 8.71071 2.46957 8.5 3 8.5H19C19.5304 8.5 20.0391 8.71071 20.4142 9.08579C20.7893 9.46086 21 9.96957 21 10.5V15.5C21 16.0304 20.7893 16.5391 20.4142 16.9142C20.0391 17.2893 19.5304 17.5 19 17.5H17" stroke="#269E97" stroke-width="2" stroke-linecap="round" stroke-linejoin="round"/>
<path d="M17 13.5H5V21.5H17V13.5Z" fill="white" stroke="#269E97" stroke-width="2" stroke-linecap="round" stroke-linejoin="round"/>
</svg>
