<svg width="19" height="20" viewBox="0 0 19 20" fill="none" xmlns="http://www.w3.org/2000/svg">
<path d="M2 19.5C0.89543 19.5 0 18.6046 0 17.5C0 16.3954 0.89543 15.5 2 15.5C3.10457 15.5 4 16.3954 4 17.5C4 18.6046 3.10457 19.5 2 19.5Z" fill="#269E97"/>
<path fill-rule="evenodd" clip-rule="evenodd" d="M10 18.5C10 13.5294 5.97056 9.5 1 9.5V7.5C7.07513 7.5 12 12.4249 12 18.5H10Z" fill="#269E97"/>
<path fill-rule="evenodd" clip-rule="evenodd" d="M17 18.5C17 9.66344 9.83653 2.5 0.999971 2.5V0.5C10.9411 0.5 19 8.55887 19 18.5H17Z" fill="#269E97"/>
</svg>
