<svg width="25" height="25" viewBox="0 0 25 25" fill="none" xmlns="http://www.w3.org/2000/svg">
<path d="M3.63092 6.94445H5.63092H21.6309" stroke="#962800" stroke-width="2" stroke-linecap="round" stroke-linejoin="round"/>
<path d="M8.63092 6.94445V4.94445C8.63092 4.41402 8.84163 3.90531 9.21671 3.53024C9.59178 3.15516 10.1005 2.94445 10.6309 2.94445H14.6309C15.1614 2.94445 15.6701 3.15516 16.0451 3.53024C16.4202 3.90531 16.6309 4.41402 16.6309 4.94445V6.94445M19.6309 6.94445V20.9445C19.6309 21.4749 19.4202 21.9836 19.0451 22.3587C18.6701 22.7337 18.1614 22.9445 17.6309 22.9445H7.63092C7.10049 22.9445 6.59178 22.7337 6.21671 22.3587C5.84163 21.9836 5.63092 21.4749 5.63092 20.9445V6.94445H19.6309Z" stroke="#962800" stroke-width="2" stroke-linecap="round" stroke-linejoin="round"/>
<path d="M10.6309 11.9445V17.9445" stroke="#962800" stroke-width="2" stroke-linecap="round" stroke-linejoin="round"/>
<path d="M15 12V18" stroke="#962800" stroke-width="2" stroke-linecap="round" stroke-linejoin="round"/>
</svg>
