<svg width="14" height="14" viewBox="0 0 14 14" fill="none" xmlns="http://www.w3.org/2000/svg">
<path d="M0.699951 4.19995C0.699951 1.83799 2.02826 0.970364 3.00411 0.756706C3.31158 0.689387 3.6111 0.848145 3.79995 1.09995L5.07957 2.80611C5.37816 3.20424 5.33857 3.76133 4.98668 4.11322L4.00961 5.0903C3.70524 5.39466 3.63161 5.85861 3.86126 6.22265C4.20109 6.76136 4.78066 7.58066 5.59995 8.39995C6.41925 9.21925 7.23854 9.79881 7.77725 10.1386C8.1413 10.3683 8.60525 10.2947 8.90961 9.9903L9.88668 9.01322C10.2386 8.66133 10.7957 8.62174 11.1938 8.92033L12.9 10.2C13.1518 10.3888 13.3105 10.6883 13.2432 10.9958C13.0295 11.9716 12.1619 13.3 9.79995 13.3C6.99995 13.3 4.89995 11.2 3.84995 10.15C2.79995 9.09995 0.699951 6.99995 0.699951 4.19995Z" fill="#269E97"/>
</svg>
