<svg width="22" height="44" viewBox="0 0 22 44" fill="none" xmlns="http://www.w3.org/2000/svg">
<path d="M20.1443 12.1645C20.1443 12.1645 21.9844 0.0147658 10.8277 0.225937C0.0038867 0.430807 1.96835 12.5085 1.96835 12.5085C1.96835 12.5085 -0.140273 12.9285 0.383122 14.3872C0.383122 14.3872 0.819137 14.7866 2.58325 13.8217L2.74888 28.975C2.74888 28.975 2.25843 29.9686 2.32769 33.6276C2.57767 46.8347 20.8332 46.4892 20.5832 33.282C20.5139 29.6231 19.9875 28.6488 19.9875 28.6488L19.5795 13.5C21.3777 14.3975 21.7995 13.9819 21.7995 13.9819C22.2685 12.5043 20.1443 12.1645 20.1443 12.1645ZM11.6393 39.8067C8.19821 39.8718 5.45311 36.351 5.45311 36.351L5.37593 32.0796C5.37593 32.0796 7.85253 36.4195 11.6693 36.3473C15.4861 36.275 17.5423 31.7259 17.5423 31.7259L17.7136 36.119C17.7136 36.119 15.0804 39.7416 11.6393 39.8067ZM17.1289 14.4791C17.1289 14.4791 15.6436 13.2304 11.2652 13.3133C6.88424 13.3962 5.23868 14.8684 5.23868 14.8684L3.45512 10.9901C3.45512 10.9901 5.64945 7.98373 11.0473 7.88156C16.4427 7.77944 18.7516 10.7618 18.7516 10.7618L17.1289 14.4791Z" fill="#1E2A36"/>
</svg>
